<svg class="animated" id="freepik_stories-prototyping-process" xmlns="http://www.w3.org/2000/svg" viewBox="0 0 500 500" version="1.1" xmlns:xlink="http://www.w3.org/1999/xlink" xmlns:svgjs="http://svgjs.com/svgjs"><style>svg#freepik_stories-prototyping-process:not(.animated) .animable {opacity: 0;}svg#freepik_stories-prototyping-process.animated #freepik--background-simple--inject-382 {animation: 1s 1 forwards cubic-bezier(.36,-0.01,.5,1.38) slideUp;animation-delay: 0s;}svg#freepik_stories-prototyping-process.animated #freepik--Shadows--inject-382 {animation: 1s 1 forwards cubic-bezier(.36,-0.01,.5,1.38) lightSpeedRight;animation-delay: 0s;}svg#freepik_stories-prototyping-process.animated #freepik--smartphone-screen--inject-382 {animation: 1s 1 forwards cubic-bezier(.36,-0.01,.5,1.38) slideUp,1.5s Infinite  linear floating;animation-delay: 0s,1s;}svg#freepik_stories-prototyping-process.animated #freepik--monitor-screen--inject-382 {animation: 1s 1 forwards cubic-bezier(.36,-0.01,.5,1.38) zoomIn,1.5s Infinite  linear floating;animation-delay: 0s,1s;}svg#freepik_stories-prototyping-process.animated #freepik--drawing-table--inject-382 {animation: 1s 1 forwards cubic-bezier(.36,-0.01,.5,1.38) zoomIn,3s Infinite  linear wind;animation-delay: 0s,1s;}svg#freepik_stories-prototyping-process.animated #freepik--Character--inject-382 {animation: 1s 1 forwards cubic-bezier(.36,-0.01,.5,1.38) slideLeft,1.5s Infinite  linear floating;animation-delay: 0s,1s;}            @keyframes slideUp {                0% {                    opacity: 0;                    transform: translateY(30px);                }                100% {                    opacity: 1;                    transform: inherit;                }            }                    @keyframes lightSpeedRight {              from {                transform: translate3d(50%, 0, 0) skewX(-20deg);                opacity: 0;              }              60% {                transform: skewX(10deg);                opacity: 1;              }              80% {                transform: skewX(-2deg);              }              to {                opacity: 1;                transform: translate3d(0, 0, 0);              }            }                    @keyframes floating {                0% {                    opacity: 1;                    transform: translateY(0px);                }                50% {                    transform: translateY(-10px);                }                100% {                    opacity: 1;                    transform: translateY(0px);                }            }                    @keyframes zoomIn {                0% {                    opacity: 0;                    transform: scale(0.5);                }                100% {                    opacity: 1;                    transform: scale(1);                }            }                    @keyframes wind {                0% {                    transform: rotate( 0deg );                }                25% {                    transform: rotate( 1deg );                }                75% {                    transform: rotate( -1deg );                }            }                    @keyframes slideLeft {                0% {                    opacity: 0;                    transform: translateX(-30px);                }                100% {                    opacity: 1;                    transform: translateX(0);                }            }        </style><g id="freepik--background-simple--inject-382" class="animable" style="transform-origin: 239.01px 252.212px;"><g id="freepik--simple-background--inject-382" class="animable" style="transform-origin: 239.01px 252.212px;"><path d="M240.74,95.62c-26.13.35-52.5,1.92-77.62,9.14s-49.09,20.55-65.31,41c-12,15.17-19.42,36-12.28,54,6.44,16.22,22.64,26,37.19,35.59s29.63,22.36,31.3,39.73c1.27,13.13-5.75,25.86-15,35.22s-20.79,16.16-31.41,24-20.77,17.23-25.5,29.54-2.62,28.06,7.9,36c6.3,4.76,14.47,6.11,22.32,7,56.11,6.51,114.44-2.46,164.43-28.75S367.8,307.8,387.31,254.79c9.35-25.41,13.75-53.1,9.16-79.78-3.88-22.52-14.56-44.31-31.52-59.85-18.27-16.75-51.07-16.69-74.67-18.35C273.8,95.65,257.26,95.4,240.74,95.62Z" style="fill: rgb(64, 123, 255); transform-origin: 239.01px 252.212px;" id="el3msa877qrdv" class="animable"></path><g id="elck0ioi6zkt"><path d="M240.74,95.62c-26.13.35-52.5,1.92-77.62,9.14s-49.09,20.55-65.31,41c-12,15.17-19.42,36-12.28,54,6.44,16.22,22.64,26,37.19,35.59s29.63,22.36,31.3,39.73c1.27,13.13-5.75,25.86-15,35.22s-20.79,16.16-31.41,24-20.77,17.23-25.5,29.54-2.62,28.06,7.9,36c6.3,4.76,14.47,6.11,22.32,7,56.11,6.51,114.44-2.46,164.43-28.75S367.8,307.8,387.31,254.79c9.35-25.41,13.75-53.1,9.16-79.78-3.88-22.52-14.56-44.31-31.52-59.85-18.27-16.75-51.07-16.69-74.67-18.35C273.8,95.65,257.26,95.4,240.74,95.62Z" style="fill: rgb(255, 255, 255); opacity: 0.9; transform-origin: 239.01px 252.212px;" class="animable"></path></g></g></g><g id="freepik--Shadows--inject-382" class="animable" style="transform-origin: 250px 463.9px;"><g id="freepik--shadows--inject-382" class="animable" style="transform-origin: 250px 463.9px;"><ellipse id="freepik--path--inject-112--inject-382" cx="250" cy="463.9" rx="193.89" ry="11.32" style="fill: rgb(250, 250, 250); transform-origin: 250px 463.9px;" class="animable"></ellipse></g></g><g id="freepik--smartphone-screen--inject-382" class="animable animator-active" style="transform-origin: 360.393px 247.225px;"><g id="freepik--smartphone-screen--inject-382" class="animable" style="transform-origin: 360.393px 247.225px;"><g id="freepik--group--inject-382" class="animable" style="transform-origin: 358.84px 247.225px;"><path d="M381.24,319.64H323.76a8.9,8.9,0,0,1-9-9.87l10.94-125.09a11,11,0,0,1,10.74-9.87h57.48a8.9,8.9,0,0,1,9,9.87L392,309.77A11,11,0,0,1,381.24,319.64Z" style="fill: rgb(64, 123, 255); transform-origin: 358.84px 247.225px;" id="elu0p1lmgkzhl" class="animable"></path><g id="elwc84v4ssbe9"><path d="M381.24,319.64H323.76a8.9,8.9,0,0,1-9-9.87l10.94-125.09a11,11,0,0,1,10.74-9.87h57.48a8.9,8.9,0,0,1,9,9.87L392,309.77A11,11,0,0,1,381.24,319.64Z" style="opacity: 0.1; transform-origin: 358.84px 247.225px;" class="animable"></path></g><g id="elmpvyfy3qins"><path d="M357.84,310.42a5.22,5.22,0,0,1-5.1,4.69,4.23,4.23,0,0,1-4.29-4.69,5.23,5.23,0,0,1,5.11-4.7A4.23,4.23,0,0,1,357.84,310.42Z" style="fill: none; stroke: rgb(255, 255, 255); stroke-miterlimit: 10; stroke-width: 0.5px; opacity: 0.8; transform-origin: 353.146px 310.415px;" class="animable"></path></g><g id="el9ichf9qv7fq"><path d="M373.54,186H354.93a1.58,1.58,0,0,1-1.6-1.75l0-.43a1.94,1.94,0,0,1,1.9-1.75h18.61a1.58,1.58,0,0,1,1.6,1.75l0,.43A1.94,1.94,0,0,1,373.54,186Z" style="fill: none; stroke: rgb(255, 255, 255); stroke-miterlimit: 10; stroke-width: 0.5px; opacity: 0.8; transform-origin: 364.385px 184.035px;" class="animable"></path></g><g id="elstp2gt2ez"><polygon points="387.02 298.8 320.81 298.8 330.15 192.09 396.35 192.09 387.02 298.8" style="fill: rgb(255, 255, 255); opacity: 0.4; transform-origin: 358.58px 245.445px;" class="animable"></polygon></g><g id="elv21cqdmcm1"><polygon points="369.83 175.26 337.77 319.64 357.04 319.64 388.77 175.26 369.83 175.26" style="fill: rgb(255, 255, 255); opacity: 0.1; isolation: isolate; transform-origin: 363.27px 247.45px;" class="animable"></polygon></g><g id="elef7982slxw7"><polygon points="354.84 175.26 322.78 319.64 332.49 319.64 364.23 175.26 354.84 175.26" style="fill: rgb(255, 255, 255); opacity: 0.1; isolation: isolate; transform-origin: 343.505px 247.45px;" class="animable"></polygon></g><polygon points="341.86 293.03 325.49 293.03 326.48 281.72 342.84 281.72 341.86 293.03" style="fill: rgb(64, 123, 255); transform-origin: 334.165px 287.375px;" id="elczg22495non" class="animable"></polygon><polygon points="362.62 293.03 346.25 293.03 347.24 281.72 363.61 281.72 362.62 293.03" style="fill: rgb(64, 123, 255); transform-origin: 354.93px 287.375px;" id="el0atuehvrd8bm" class="animable"></polygon><polygon points="383.39 293.03 367.02 293.03 368.01 281.72 384.38 281.72 383.39 293.03" style="fill: rgb(64, 123, 255); transform-origin: 375.7px 287.375px;" id="elgg2rlrua5ya" class="animable"></polygon><polygon points="385.92 264.17 328.01 264.17 327.92 265.17 385.83 265.17 385.92 264.17" style="fill: rgb(64, 123, 255); transform-origin: 356.92px 264.67px;" id="elccu927rdpwj" class="animable"></polygon><g id="elq7i4v6hnxdk"><polygon points="385.92 264.17 328.01 264.17 327.92 265.17 385.83 265.17 385.92 264.17" style="opacity: 0.2; transform-origin: 356.92px 264.67px;" class="animable"></polygon></g><polygon points="386.25 260.35 380.91 260.35 381.38 255 386.72 255 386.25 260.35" style="fill: rgb(64, 123, 255); transform-origin: 383.815px 257.675px;" id="elv4ylku8jey8" class="animable"></polygon><polygon points="359.99 260.35 354.65 260.35 355.12 255 360.46 255 359.99 260.35" style="fill: rgb(64, 123, 255); transform-origin: 357.555px 257.675px;" id="ely8dppzwo3kk" class="animable"></polygon><polygon points="333.73 260.35 328.39 260.35 328.86 255 334.2 255 333.73 260.35" style="fill: rgb(64, 123, 255); transform-origin: 331.295px 257.675px;" id="el4o34wqtr9bg" class="animable"></polygon><polygon points="385 274.63 369.81 274.63 370.13 270.96 385.32 270.96 385 274.63" style="fill: rgb(64, 123, 255); transform-origin: 377.565px 272.795px;" id="el0jb2sb35ljp" class="animable"></polygon><polygon points="367 249.19 329.39 249.19 329.72 245.47 367.33 245.47 367 249.19" style="fill: rgb(64, 123, 255); transform-origin: 348.36px 247.33px;" id="elq6obnl4amf" class="animable"></polygon><g id="elhz1kcu7yswh"><polygon points="367 249.19 329.39 249.19 329.72 245.47 367.33 245.47 367 249.19" style="fill: rgb(255, 255, 255); opacity: 0.2; transform-origin: 348.36px 247.33px;" class="animable"></polygon></g><polygon points="351.06 199.82 333.71 199.82 334.06 195.86 351.4 195.86 351.06 199.82" style="fill: rgb(64, 123, 255); transform-origin: 342.555px 197.84px;" id="el0bz8gri2a2a8" class="animable"></polygon><g id="ellsljg7svo3m"><polygon points="351.06 199.82 333.71 199.82 334.06 195.86 351.4 195.86 351.06 199.82" style="fill: rgb(255, 255, 255); opacity: 0.2; transform-origin: 342.555px 197.84px;" class="animable"></polygon></g><path d="M331.54,277.23h0a4.15,4.15,0,0,1-4.2-4.6h0a5.12,5.12,0,0,1,5-4.6h0a4.15,4.15,0,0,1,4.2,4.6h0A5.12,5.12,0,0,1,331.54,277.23Z" style="fill: rgb(64, 123, 255); transform-origin: 331.94px 272.63px;" id="elpzva7mas9n8" class="animable"></path><polygon points="387.73 242.47 329.95 242.47 333.44 202.56 391.23 202.56 387.73 242.47" style="fill: rgb(64, 123, 255); transform-origin: 360.59px 222.515px;" id="eld67x2w90rcp" class="animable"></polygon><g id="el0ewx6jmabos8"><path d="M325.4,188h21.06a10,10,0,0,0,9.81-9l.36-4.14H336.72A11.31,11.31,0,0,0,325.67,185Z" style="opacity: 0.3; transform-origin: 341.015px 181.43px;" class="animable"></path></g></g><g id="el7h8z1vzja06"><rect x="401.67" y="208.44" width="4.83" height="1" style="fill: rgb(64, 123, 255); transform-origin: 404.085px 208.94px; transform: rotate(-85.86deg);" class="animable"></rect></g><g id="elfhbdij45svo"><rect x="398.07" y="194.78" width="14.01" height="1" style="fill: rgb(64, 123, 255); transform-origin: 405.075px 195.28px; transform: rotate(-85.86deg);" class="animable"></rect></g></g></g><g id="freepik--monitor-screen--inject-382" class="animable" style="transform-origin: 263.999px 119.568px;"><g id="freepik--monitor-screen--inject-382" class="animable" style="transform-origin: 263.999px 119.568px;"><g id="freepik--group--inject-382" class="animable" style="transform-origin: 263.999px 121.295px;"><polygon points="344.44 174.9 174.82 174.9 184.22 67.37 353.85 67.37 344.44 174.9" style="fill: rgb(64, 123, 255); transform-origin: 264.335px 121.135px;" id="elfefwvwtvn8" class="animable"></polygon><path d="M342.1,183.31H175a7.73,7.73,0,0,1-7.83-8.58l9.35-106.86a9.55,9.55,0,0,1,9.33-8.59H353a7.75,7.75,0,0,1,7.83,8.59l-9.35,106.86A9.55,9.55,0,0,1,342.1,183.31Z" style="fill: rgb(64, 123, 255); transform-origin: 263.999px 121.295px;" id="elh910gw2gig" class="animable"></path><polygon points="344.44 174.9 174.82 174.9 184.22 67.37 353.85 67.37 344.44 174.9" style="fill: rgb(64, 123, 255); transform-origin: 264.335px 121.135px;" id="elfv92wac0upd" class="animable"></polygon><g id="elhmu08wfifhs"><polygon points="344.44 174.9 174.82 174.9 184.22 67.37 353.85 67.37 344.44 174.9" style="fill: rgb(255, 255, 255); opacity: 0.4; transform-origin: 264.335px 121.135px;" class="animable"></polygon></g><polygon points="333.44 98.57 302.3 98.57 303.83 81.05 334.98 81.05 333.44 98.57" style="fill: rgb(64, 123, 255); transform-origin: 318.64px 89.81px;" id="elioxxd6s89bq" class="animable"></polygon><polygon points="330.42 133.13 299.27 133.13 300.81 115.61 331.95 115.61 330.42 133.13" style="fill: rgb(64, 123, 255); transform-origin: 315.61px 124.37px;" id="elvlersytlxn" class="animable"></polygon><polygon points="327.39 167.68 296.25 167.68 297.78 150.16 328.93 150.16 327.39 167.68" style="fill: rgb(64, 123, 255); transform-origin: 312.59px 158.92px;" id="elvffgzm5jg8" class="animable"></polygon><polygon points="193.65 154.26 193.56 155.26 283.45 155.26 283.54 154.26 193.65 154.26" style="fill: rgb(64, 123, 255); transform-origin: 238.55px 154.76px;" id="elxaznyouydra" class="animable"></polygon><g id="elvpusna42fw"><polygon points="283.54 154.26 193.65 154.26 193.56 155.26 283.45 155.26 283.54 154.26" style="opacity: 0.2; transform-origin: 238.55px 154.76px;" class="animable"></polygon></g><g id="elvh898kf6aa"><polygon points="205.3 59.34 172.17 183.26 183.31 183.26 216.08 59.34 205.3 59.34" style="fill: rgb(255, 255, 255); opacity: 0.1; isolation: isolate; transform-origin: 194.125px 121.3px;" class="animable"></polygon></g><g id="eljn6au8jln9d"><polygon points="222.5 59.34 189.37 183.26 211.48 183.26 244.24 59.34 222.5 59.34" style="fill: rgb(255, 255, 255); opacity: 0.1; isolation: isolate; transform-origin: 216.805px 121.3px;" class="animable"></polygon></g><polygon points="284.54 142.83 194.76 142.83 200.19 80.82 289.96 80.82 284.54 142.83" style="fill: rgb(64, 123, 255); transform-origin: 242.36px 111.825px;" id="el8v5k78kjs2q" class="animable"></polygon><path d="M197.23,167.28h0a4.15,4.15,0,0,1-4.2-4.6h0a5.12,5.12,0,0,1,5-4.6h0a4.15,4.15,0,0,1,4.2,4.6h0A5.12,5.12,0,0,1,197.23,167.28Z" style="fill: rgb(64, 123, 255); transform-origin: 197.63px 162.68px;" id="el0ni1w1vtrt6" class="animable"></path><polygon points="238.98 150.45 194.1 150.45 194.44 146.49 239.33 146.49 238.98 150.45" style="fill: rgb(64, 123, 255); transform-origin: 216.715px 148.47px;" id="elxoqbul38xqr" class="animable"></polygon><g id="eleifudhzrvqo"><polygon points="238.98 150.45 194.1 150.45 194.44 146.49 239.33 146.49 238.98 150.45" style="fill: rgb(255, 255, 255); opacity: 0.2; transform-origin: 216.715px 148.47px;" class="animable"></polygon></g><polygon points="282.57 164.66 265.23 164.66 265.57 160.69 282.92 160.69 282.57 164.66" style="fill: rgb(64, 123, 255); transform-origin: 274.075px 162.675px;" id="elu0lzms4b1yi" class="animable"></polygon><polygon points="283.87 150.45 279.91 150.45 280.25 146.49 284.22 146.49 283.87 150.45" style="fill: rgb(64, 123, 255); transform-origin: 282.065px 148.47px;" id="els8x0codovk" class="animable"></polygon><polygon points="277.15 150.45 273.19 150.45 273.54 146.49 277.5 146.49 277.15 150.45" style="fill: rgb(64, 123, 255); transform-origin: 275.345px 148.47px;" id="elrmhe8fyr8up" class="animable"></polygon><polygon points="270.44 150.45 266.47 150.45 266.82 146.49 270.78 146.49 270.44 150.45" style="fill: rgb(64, 123, 255); transform-origin: 268.625px 148.47px;" id="elvvsbxsqkg8" class="animable"></polygon><g id="elwxejwdaiw7"><polygon points="290.3 77.01 222.97 77.01 223.26 73.59 290.6 73.59 290.3 77.01" style="fill: rgb(255, 255, 255); opacity: 0.5; transform-origin: 256.785px 75.3px;" class="animable"></polygon></g><polygon points="217.65 77.28 200.31 77.28 200.65 73.32 218 73.32 217.65 77.28" style="fill: rgb(64, 123, 255); transform-origin: 209.155px 75.3px;" id="eladitu8yykk7" class="animable"></polygon><g id="elfojpkozgjgs"><polygon points="217.65 77.28 200.31 77.28 200.65 73.32 218 73.32 217.65 77.28" style="fill: rgb(255, 255, 255); opacity: 0.2; transform-origin: 209.155px 75.3px;" class="animable"></polygon></g></g><g id="elxqqad2rv4s"><rect x="336.79" y="54.09" width="1" height="4.83" style="fill: rgb(64, 123, 255); transform-origin: 337.29px 56.505px; transform: rotate(-89.52deg);" class="animable"></rect></g><g id="el97b48fnc1ll"><rect x="323.09" y="49.39" width="1" height="14.01" style="fill: rgb(64, 123, 255); transform-origin: 323.59px 56.395px; transform: rotate(-89.4271deg);" class="animable"></rect></g></g></g><g id="freepik--drawing-table--inject-382" class="animable" style="transform-origin: 214.14px 335.645px;"><g id="freepik--drawing-table--inject-382" class="animable" style="transform-origin: 214.14px 335.645px;"><polygon points="281.06 204.07 286.47 204.07 276.51 314.25 271.38 314.25 281.06 204.07" style="fill: rgb(38, 50, 56); transform-origin: 278.925px 259.16px;" id="elgcjfuu3f2xj" class="animable"></polygon><g id="el6x68fcxnl1v"><polygon points="281.06 204.07 286.47 204.07 276.51 314.25 271.38 314.25 281.06 204.07" style="fill: rgb(255, 255, 255); opacity: 0.2; transform-origin: 278.925px 259.16px;" class="animable"></polygon></g><g id="elxbpw728v1fn"><rect x="283.04" y="256.87" width="1" height="53.78" style="fill: rgb(38, 50, 56); transform-origin: 283.54px 283.76px; transform: rotate(-7.52deg);" class="animable"></rect></g><polygon points="273.94 308.32 107.25 308.32 116.37 204.07 283.06 204.07 273.94 308.32" style="fill: rgb(64, 123, 255); transform-origin: 195.155px 256.195px;" id="elt83chktb3e" class="animable"></polygon><g id="ellk6jb8rj9l"><polygon points="273.94 308.32 107.25 308.32 116.37 204.07 283.06 204.07 273.94 308.32" style="fill: rgb(255, 255, 255); opacity: 0.7; transform-origin: 195.155px 256.195px;" class="animable"></polygon></g><polygon points="143.77 320.82 150.67 320.82 161.95 467.22 156.96 467.22 143.77 320.82" style="fill: rgb(38, 50, 56); transform-origin: 152.86px 394.02px;" id="elcawuti6jti" class="animable"></polygon><polygon points="309.56 319.82 316.46 319.82 327.74 467.22 322.75 467.22 309.56 319.82" style="fill: rgb(38, 50, 56); transform-origin: 318.65px 393.52px;" id="el23yyllq0cwx" class="animable"></polygon><rect x="108.63" y="319.82" width="205.78" height="23.21" style="fill: rgb(64, 123, 255); transform-origin: 211.52px 331.425px;" id="eluhksgl5hire" class="animable"></rect><g id="elkv89y38gr6"><polygon points="278.27 320 277.46 343.01 314.41 343.03 314.41 319.82 278.27 320" style="opacity: 0.3; transform-origin: 295.935px 331.425px;" class="animable"></polygon></g><g id="el6ign742uibj"><rect x="108.66" y="319.99" width="166.48" height="23.21" style="opacity: 0.2; transform-origin: 191.9px 331.595px;" class="animable"></rect></g><polygon points="113.18 319.82 106.28 319.82 106.07 467.22 111.05 467.22 113.18 319.82" style="fill: rgb(38, 50, 56); transform-origin: 109.625px 393.52px;" id="elag9bry7wzjo" class="animable"></polygon><polygon points="278.97 319.82 272.07 319.82 271.87 467.22 276.85 467.22 278.97 319.82" style="fill: rgb(38, 50, 56); transform-origin: 275.42px 393.52px;" id="elz3qskny68a" class="animable"></polygon><g id="elobt4f359bbg"><polygon points="106.28 319.82 106.07 467.22 111.05 467.22 113.18 319.82 106.28 319.82" style="fill: rgb(255, 255, 255); opacity: 0.2; transform-origin: 109.625px 393.52px;" class="animable"></polygon></g><g id="el3ylybb742e5"><polygon points="278.97 319.82 272.07 319.82 271.87 467.22 276.85 467.22 278.97 319.82" style="fill: rgb(255, 255, 255); opacity: 0.1; transform-origin: 275.42px 393.52px;" class="animable"></polygon></g><path d="M100.54,314.25h0c0-3.13,1.16-5.66,2.6-5.67H319.6c1.44,0,2.6,2.54,2.6,5.67h0c0,3.12-1.16,5.65-2.6,5.66H103.14C101.7,319.9,100.54,317.37,100.54,314.25Z" style="fill: rgb(38, 50, 56); transform-origin: 211.37px 314.245px;" id="elbj39xccvcdc" class="animable"></path><g id="el5iqulg0ub8d"><path d="M100.54,314.25h0c0-3.13,1.16-5.66,2.6-5.67H319.6c1.44,0,2.6,2.54,2.6,5.67h0c0,3.12-1.16,5.65-2.6,5.66H103.14C101.7,319.9,100.54,317.37,100.54,314.25Z" style="fill: rgb(255, 255, 255); opacity: 0.1; transform-origin: 211.37px 314.245px;" class="animable"></path></g><path d="M266.33,314.25h0c0-3.13,1.17-5.66,2.6-5.67H319.6c1.44,0,2.6,2.54,2.6,5.67h0c0,3.12-1.16,5.65-2.6,5.66H268.93C267.5,319.9,266.33,317.37,266.33,314.25Z" style="fill: rgb(38, 50, 56); transform-origin: 294.265px 314.245px;" id="elyu8t2drqykg" class="animable"></path><polygon points="263.32 294.89 212.87 294.89 219.98 213.56 270.44 213.56 263.32 294.89" style="fill: rgb(255, 255, 255); transform-origin: 241.655px 254.225px;" id="el4nso9f5up6m" class="animable"></polygon><path d="M263.78,295.39H212.33l7.2-82.33H271Zm-50.37-1h49.46l7-80.33H220.44Z" style="fill: rgb(255, 255, 255); transform-origin: 241.665px 254.225px;" id="el4ln649i0rma" class="animable"></path><path d="M229.37,291.26H217.08l.75-8.65h12.29Zm-11.75-.5h11.29l.67-7.65H218.29Z" style="fill: rgb(224, 224, 224); transform-origin: 223.6px 286.935px;" id="elod36ee8xkj9" class="animable"></path><path d="M244.33,291.26H232l.76-8.65h12.29Zm-11.75-.5h11.29l.67-7.65H233.25Z" style="fill: rgb(224, 224, 224); transform-origin: 238.525px 286.935px;" id="el8x1h7psfpyo" class="animable"></path><path d="M259.28,291.26H247l.76-8.65H260Zm-11.74-.5h11.28l.67-7.65H248.21Z" style="fill: rgb(224, 224, 224); transform-origin: 253.5px 286.935px;" id="elhm4ahw8evmg" class="animable"></path><rect x="219.14" y="270.33" width="41.71" height="0.5" style="fill: rgb(224, 224, 224); transform-origin: 239.995px 270.58px;" id="elafcr2ll6qv" class="animable"></rect><path d="M247.57,258.69H220l.27-3.18h27.59Zm-27-.5h26.59l.19-2.18H220.71Z" style="fill: rgb(224, 224, 224); transform-origin: 233.93px 257.1px;" id="eljp9zcjf5l7k" class="animable"></path><path d="M260.36,279H248.91l.28-3.15h11.44Zm-10.9-.5H259.9l.18-2.15H249.65Z" style="fill: rgb(224, 224, 224); transform-origin: 254.77px 277.425px;" id="ell52nwxwbx3" class="animable"></path><path d="M261.43,266.72h-4.35l.38-4.35h4.35Zm-3.8-.5H261l.29-3.35h-3.34Z" style="fill: rgb(224, 224, 224); transform-origin: 259.445px 264.545px;" id="ele6ozlf8g1gw" class="animable"></path><path d="M242.52,266.72h-4.35l.38-4.35h4.35Zm-3.81-.5h3.35l.29-3.35H239Z" style="fill: rgb(224, 224, 224); transform-origin: 240.535px 264.545px;" id="elmnl4mqywlbm" class="animable"></path><path d="M223.61,266.72h-4.35l.38-4.35H224Zm-3.81-.5h3.35l.29-3.35h-3.35Z" style="fill: rgb(224, 224, 224); transform-origin: 221.63px 264.545px;" id="elpgx46c5596" class="animable"></path><path d="M236.26,221.13h-13l.3-3.36h13Zm-12.45-.5h12l.2-2.36H224Z" style="fill: rgb(224, 224, 224); transform-origin: 229.91px 219.45px;" id="elw60eop7azz" class="animable"></path><path d="M222.26,279.88h-1.1a2.75,2.75,0,0,1-2.77-3l.1-1.09a3.33,3.33,0,0,1,3.25-3h1.09a2.75,2.75,0,0,1,2.78,3l-.1,1.09A3.33,3.33,0,0,1,222.26,279.88Zm-.52-6.63a2.84,2.84,0,0,0-2.76,2.54l-.09,1.09a2.25,2.25,0,0,0,2.27,2.5h1.1a2.84,2.84,0,0,0,2.76-2.54l.09-1.09a2.29,2.29,0,0,0-.58-1.77,2.27,2.27,0,0,0-1.7-.73Z" style="fill: rgb(224, 224, 224); transform-origin: 222px 276.335px;" id="elbd356bohfvr" class="animable"></path><path d="M262.59,252.84H220.47l0-.27,2.53-29h42.12l0,.27Zm-41.58-.5h41.12l2.47-28.24H223.48Z" style="fill: rgb(224, 224, 224); transform-origin: 242.795px 238.205px;" id="elm0t3whz5j9o" class="animable"></path><g id="elqu4ypxzk94s"><rect x="242.56" y="213.96" width="0.5" height="48.53" style="fill: rgb(224, 224, 224); transform-origin: 242.81px 238.225px; transform: rotate(-53.68deg);" class="animable"></rect></g><g id="elv8h5h59ffoj"><rect x="218.46" y="244.67" width="28.14" height="0.5" style="fill: rgb(224, 224, 224); transform-origin: 232.53px 244.92px; transform: rotate(-33.07deg);" class="animable"></rect></g><polygon points="228.99 291.21 217.91 283.06 218.21 282.66 229.29 290.81 228.99 291.21" style="fill: rgb(224, 224, 224); transform-origin: 223.6px 286.935px;" id="elzwii88yqzlc" class="animable"></polygon><g id="elkr45tieiig"><rect x="216.14" y="286.69" width="14.92" height="0.5" style="fill: rgb(224, 224, 224); transform-origin: 223.6px 286.94px; transform: rotate(-33.07deg);" class="animable"></rect></g><polygon points="243.95 291.21 232.87 283.06 233.17 282.66 244.25 290.81 243.95 291.21" style="fill: rgb(224, 224, 224); transform-origin: 238.56px 286.935px;" id="eln553kzxuijk" class="animable"></polygon><g id="elqqvbymw6lx"><rect x="231.1" y="286.69" width="14.92" height="0.5" style="fill: rgb(224, 224, 224); transform-origin: 238.56px 286.94px; transform: rotate(-33.08deg);" class="animable"></rect></g><polygon points="258.9 291.21 247.83 283.06 248.13 282.66 259.2 290.81 258.9 291.21" style="fill: rgb(224, 224, 224); transform-origin: 253.515px 286.935px;" id="elza33huu5px" class="animable"></polygon><g id="elu3nkbn4c44s"><rect x="246.06" y="286.69" width="14.92" height="0.5" style="fill: rgb(224, 224, 224); transform-origin: 253.52px 286.94px; transform: rotate(-33.08deg);" class="animable"></rect></g><polygon points="206.54 277.31 113.29 277.31 118.85 213.76 212.1 213.76 206.54 277.31" style="fill: rgb(255, 255, 255); transform-origin: 162.695px 245.535px;" id="elfjwkvpq6s7i" class="animable"></polygon><path d="M207,277.81H112.75l5.65-64.55h94.24Zm-93.16-1h92.24l5.47-62.55H119.31Z" style="fill: rgb(255, 255, 255); transform-origin: 162.695px 245.535px;" id="el51lirnbnhhe" class="animable"></path><rect x="124.14" y="266" width="50.62" height="0.5" style="fill: rgb(224, 224, 224); transform-origin: 149.45px 266.25px;" id="elt9z65fsy2d" class="animable"></rect><path d="M175.84,256.77h-51l0-.27,3.07-35.14h51.06l0,.27Zm-50.51-.5h50.05l3-34.41h-50Z" style="fill: rgb(224, 224, 224); transform-origin: 151.905px 239.065px;" id="elz791dua39w" class="animable"></path><path d="M126.87,273.54h-1.38a2,2,0,0,1-1.48-.63,2,2,0,0,1-.5-1.54l.12-1.38a2.38,2.38,0,0,1,2.32-2.13h1.37a2,2,0,0,1,1.48.64,2,2,0,0,1,.51,1.53l-.12,1.38A2.39,2.39,0,0,1,126.87,273.54Zm-.92-5.18a1.86,1.86,0,0,0-1.82,1.67l-.12,1.38a1.45,1.45,0,0,0,1.48,1.63h1.38a1.87,1.87,0,0,0,1.82-1.67l.12-1.38a1.47,1.47,0,0,0-1.49-1.63Z" style="fill: rgb(224, 224, 224); transform-origin: 126.409px 270.7px;" id="elp8hl2zlkjzo" class="animable"></path><path d="M150,263.07H124.23l.24-2.74h25.78Zm-25.23-.5h24.77l.16-1.74H124.93Z" style="fill: rgb(224, 224, 224); transform-origin: 137.24px 261.7px;" id="elikvuvz860n" class="animable"></path><path d="M174.47,272.07H164.2l.24-2.74h10.27Zm-9.72-.5H174l.16-1.74H164.9Z" style="fill: rgb(224, 224, 224); transform-origin: 169.455px 270.7px;" id="elysyygccvaql" class="animable"></path><path d="M175.29,263.07h-2.73l.23-2.74h2.74Zm-2.19-.5h1.73l.15-1.74h-1.73Z" style="fill: rgb(224, 224, 224); transform-origin: 174.045px 261.7px;" id="els95q5mzc9s" class="animable"></path><path d="M171.51,263.07h-2.74l.24-2.74h2.74Zm-2.19-.5h1.73l.15-1.74h-1.73Z" style="fill: rgb(224, 224, 224); transform-origin: 170.26px 261.7px;" id="el3ev00q6y6nr" class="animable"></path><path d="M167.72,263.07H165l.24-2.74H168Zm-2.18-.5h1.73l.15-1.74h-1.73Z" style="fill: rgb(224, 224, 224); transform-origin: 166.5px 261.7px;" id="elu62vyizqp2" class="animable"></path><path d="M179.17,218.71H140.75l.21-2.43h38.42Zm-37.87-.5h37.41l.13-1.43H141.42Z" style="fill: rgb(224, 224, 224); transform-origin: 160.065px 217.495px;" id="ellqnywsbvz" class="animable"></path><path d="M138.26,218.86H128l.24-2.73H138.5Zm-9.72-.5h9.26l.16-1.73h-9.27Z" style="fill: rgb(224, 224, 224); transform-origin: 133.25px 217.495px;" id="elgs2ettbme7t" class="animable"></path><path d="M203.29,232.85h-18l.91-10.37h18Zm-17.49-.5h17l.83-9.37h-17Z" style="fill: rgb(224, 224, 224); transform-origin: 194.745px 227.665px;" id="elz31v96h91m" class="animable"></path><path d="M201.59,252.31h-18l.91-10.37h18Zm-17.5-.5h17l.82-9.37h-17Z" style="fill: rgb(224, 224, 224); transform-origin: 193.045px 247.125px;" id="eln4u5tdksvi" class="animable"></path><path d="M199.89,271.77h-18l.9-10.37h18Zm-17.5-.5h17l.82-9.37h-17Z" style="fill: rgb(224, 224, 224); transform-origin: 191.34px 266.585px;" id="el14q16yju38si" class="animable"></path><g id="elvn4xdaknwlk"><rect x="184.29" y="227.42" width="20.88" height="0.5" style="fill: rgb(224, 224, 224); transform-origin: 194.73px 227.67px; transform: rotate(-28.23deg);" class="animable"></rect></g><polygon points="202.94 232.81 186.26 222.95 186.51 222.52 203.19 232.38 202.94 232.81" style="fill: rgb(224, 224, 224); transform-origin: 194.725px 227.665px;" id="el274pujf14ur" class="animable"></polygon><g id="el3dvzk6n8tm"><rect x="182.58" y="246.88" width="20.88" height="0.5" style="fill: rgb(224, 224, 224); transform-origin: 193.02px 247.13px; transform: rotate(-28.1063deg);" class="animable"></rect></g><g id="el1b4n43nk1x8"><rect x="192.77" y="237.44" width="0.5" height="19.38" style="fill: rgb(224, 224, 224); transform-origin: 193.02px 247.13px; transform: rotate(-59.3311deg);" class="animable"></rect></g><path d="M181.83,272l.94-10.72,8.56,5.06,9.07-4.87.24.45-8.81,4.72,8,4.71-.26.43-8.21-4.87Zm1.37-9.89-.79,9,8.4-4.5Z" style="fill: rgb(224, 224, 224); transform-origin: 191.235px 266.64px;" id="elacygmqqsn9u" class="animable"></path><g id="el48qebtx3l4"><rect x="119.87" y="238.81" width="63.98" height="0.5" style="fill: rgb(224, 224, 224); transform-origin: 151.86px 239.06px; transform: rotate(-33.07deg);" class="animable"></rect></g><g id="eleh1dusieviq"><rect x="151.61" y="209.59" width="0.5" height="58.95" style="fill: rgb(224, 224, 224); transform-origin: 151.86px 239.065px; transform: rotate(-53.68deg);" class="animable"></rect></g></g></g><g id="freepik--Character--inject-382" class="animable" style="transform-origin: 174.925px 318.434px;"><g id="freepik--character--inject-382" class="animable" style="transform-origin: 174.925px 318.434px;"><path d="M182.61,434.3l-1.1,24.37s9,2.79,9.88-.92c.57-2.28,2.27-10.22,3.8-16.41.59-2.35,0-4.61-1.2-5.49C192,434.39,188.61,434.42,182.61,434.3Z" style="fill: rgb(255, 139, 123); transform-origin: 188.466px 446.988px;" id="el5i99h1cyx5a" class="animable"></path><path d="M126.68,433.05l-9.35,18.45s5.33,6.74,7.56,4c3-3.68,12.79-15.68,12.79-15.68S141.08,440.3,126.68,433.05Z" style="fill: rgb(255, 139, 123); transform-origin: 127.68px 444.603px;" id="elh3293jzp0xq" class="animable"></path><g id="el5maxlw3iz6r"><polygon points="122.26 441.76 132.6 446.1 136.76 440.99 124.88 436.59 122.26 441.76" style="opacity: 0.2; transform-origin: 129.51px 441.345px;" class="animable"></polygon></g><g id="elsypxota65xo"><polygon points="182.21 443.27 181.95 448.88 193.4 448.88 194.8 443.27 182.21 443.27" style="opacity: 0.2; transform-origin: 188.375px 446.075px;" class="animable"></polygon></g><path d="M122.78,291l4.44,5.19,5.36-3.94s-1.78-7.75-2.6-7.2l-7.2,4.88Z" style="fill: rgb(255, 139, 123); transform-origin: 127.68px 290.606px;" id="elnhuh239ppj" class="animable"></path><g id="eltn1go11ylc"><path d="M122.78,291l4.44,5.19,5.36-3.94s-1.78-7.75-2.6-7.2l-7.2,4.88Z" style="opacity: 0.2; transform-origin: 127.68px 290.606px;" class="animable"></path></g><path d="M127.05,224.11l-19.59,17.66A8.88,8.88,0,0,0,106.27,252c4.88,9,16.51,27.08,16.51,27.08l5.7-4.1s-6.84-20.23-9.64-24.46a.57.57,0,0,1,.12-.77l16.58-13.66Z" style="fill: rgb(255, 139, 123); transform-origin: 120.355px 251.595px;" id="elzpyqfuzljtq" class="animable"></path><g id="elhsagsnbtvr7"><g style="opacity: 0.2; transform-origin: 120.355px 251.595px;" class="animable"><path d="M127.05,224.11l-19.59,17.66A8.88,8.88,0,0,0,106.27,252c4.88,9,16.51,27.08,16.51,27.08l5.7-4.1s-6.84-20.23-9.64-24.46a.57.57,0,0,1,.12-.77l16.58-13.66Z" id="eluu5q0soz2h" class="animable" style="transform-origin: 120.355px 251.595px;"></path></g></g><path d="M122.78,279v10.87l8-5.43s.53-9.18-2.32-9.54Z" style="fill: rgb(255, 139, 123); transform-origin: 126.799px 282.385px;" id="el2xbp3fqt86i" class="animable"></path><g id="el3iu9rvrwzzn"><path d="M122.78,279v10.87l8-5.43s.53-9.18-2.32-9.54Z" style="opacity: 0.2; transform-origin: 126.799px 282.385px;" class="animable"></path></g><path d="M168.06,367.46a73.08,73.08,0,0,1-1.8,14.34c-5.7,24.09-28.23,58.65-28.23,58.65l-13.15-4.93s18.57-50,20.71-62.75c1.74-10.4-14.29-48.39-18.94-63.83-3.36-11.16,1.37-21.6,1.37-21.6s12.08,1.64,26.4,2.54l5.63,25.92,2.6,12a139.2,139.2,0,0,1,4.3,20.43l.12.9c.1.78.2,1.55.28,2.3A112.94,112.94,0,0,1,168.06,367.46Z" style="fill: rgb(64, 123, 255); transform-origin: 146.49px 363.895px;" id="el114c9nxpnk9n" class="animable"></path><g id="elujzdtxzwvz8"><path d="M168.06,367.46a73.08,73.08,0,0,1-1.8,14.34c-5.7,24.09-28.23,58.65-28.23,58.65l-13.15-4.93s18.57-50,20.71-62.75c1.74-10.4-14.29-48.39-18.94-63.83-3.36-11.16,1.37-21.6,1.37-21.6s12.08,1.64,26.4,2.54l5.63,25.92,2.6,12a139.2,139.2,0,0,1,4.3,20.43l.12.9c.1.78.2,1.55.28,2.3A112.94,112.94,0,0,1,168.06,367.46Z" style="fill: rgb(255, 255, 255); opacity: 0.4; transform-origin: 146.49px 363.895px;" class="animable"></path></g><g id="eln90xsu7q2f"><path d="M168.06,367.46c-1.86-6.4-9.49-25.39-19.49-44.23-10.09-19,1-23.56,1-23.56,4.23,1.54,7.71,7.89,10.48,16.13,3.27,9.73,5.55,22.14,6.9,32.43l.12.9c.1.78.2,1.55.28,2.3A112.94,112.94,0,0,1,168.06,367.46Z" style="fill: rgb(38, 50, 56); opacity: 0.4; transform-origin: 156.216px 333.565px;" class="animable"></path></g><path d="M177.23,293.28l-34.15-2.59s-2.34,7.88-2.34,13.57c0,20.8,14.68,19.78,19.21,30.19,10,23.08,19.12,37.24,20.23,43.73.87,5.1,1,68.48,1,68.48h13.32s11.68-49.6,9.5-69.74S177.23,293.28,177.23,293.28Z" style="fill: rgb(64, 123, 255); transform-origin: 172.506px 368.675px;" id="el78w07lm5wzf" class="animable"></path><g id="elcz7n3g1f2vd"><g style="opacity: 0.4; transform-origin: 172.506px 368.675px;" class="animable"><path d="M177.23,293.28l-34.15-2.59s-2.34,7.88-2.34,13.57c0,20.8,14.68,19.78,19.21,30.19,10,23.08,19.12,37.24,20.23,43.73.87,5.1,1,68.48,1,68.48h13.32s11.68-49.6,9.5-69.74S177.23,293.28,177.23,293.28Z" style="fill: rgb(255, 255, 255); transform-origin: 172.506px 368.675px;" id="el2ccvt2yn24k" class="animable"></path></g></g><path d="M223.28,225.6l19.84,10a1.39,1.39,0,0,1,.27.21l1.29,1.48-1.84-.06a.85.85,0,0,1-.35-.08l-20.18-9.43a.89.89,0,0,1-.45-1.13l.2-.49A.89.89,0,0,1,223.28,225.6Z" style="fill: rgb(64, 123, 255); transform-origin: 233.239px 231.402px;" id="elq4gzwmnhgja" class="animable"></path><path id="freepik--path--inject-382" d="M226.86,234.06l6.38-3.44-1.05,9.19s-5.24,3.08-8.41-.14Z" style="fill: rgb(255, 139, 123); transform-origin: 228.51px 235.879px;" class="animable"></path><path id="freepik--path--inject-382" d="M240.41,234.31l-.5,2.93a2.18,2.18,0,0,1-1.86,1.79l-5.86.78,1.05-9.19,5.49,1.21A2.18,2.18,0,0,1,240.41,234.31Z" style="fill: rgb(255, 139, 123); transform-origin: 236.314px 235.215px;" class="animable"></path><path d="M178.36,233.71s5.19,26.09,17.1,30.42c10.72,3.89,32.26-23,32.26-23l-.86-7.07-27,17.52L189,224.09A135.5,135.5,0,0,0,178.36,233.71Z" style="fill: rgb(255, 139, 123); transform-origin: 203.04px 244.302px;" id="elpgvw9dn4tvm" class="animable"></path><path d="M128.61,457.38a16.23,16.23,0,0,1-2.21-2,.2.2,0,0,1,0-.26.22.22,0,0,1,.23-.12c.49.08,4.74.75,5.28,1.94a.73.73,0,0,1-.06.7,1.29,1.29,0,0,1-1,.63A3.57,3.57,0,0,1,128.61,457.38Zm-1.42-1.84c1.49,1.51,2.81,2.34,3.57,2.3a.8.8,0,0,0,.65-.42.26.26,0,0,0,0-.27C131.16,456.47,128.91,455.86,127.19,455.54Z" style="fill: rgb(64, 123, 255); transform-origin: 129.162px 456.634px;" id="el2dbc4nc0ris" class="animable"></path><path d="M126.42,455.4a.36.36,0,0,1-.08-.12.25.25,0,0,1,0-.22c.09-.14,2.72-3,4.45-1.77l.16.1c.46.4.42.76.31,1-.49,1-3.55,1.28-4.79,1Zm4.17-1.73c-1.11-.81-2.84.71-3.56,1.38,1.37.12,3.57-.27,3.86-.86,0,0,.12-.17-.19-.45Z" style="fill: rgb(64, 123, 255); transform-origin: 128.823px 454.238px;" id="el33sy61fr308" class="animable"></path><path d="M116.46,450.6l-4.48,8a1.49,1.49,0,0,0,.6,2c2.43,1.42,5.7,3.42,7.12,4.06,7.33,3.29,11.68,2.42,15.83,2.33a2.25,2.25,0,0,0,1.93-2.94l-.18-.62a1.55,1.55,0,0,0-1.07-1.08c-6-1.59-9.49-8.22-9.49-8.22L118.35,450A1.46,1.46,0,0,0,116.46,450.6Z" style="fill: rgb(38, 50, 56); transform-origin: 124.69px 458.511px;" id="elj1ghus4zbm8" class="animable"></path><path d="M194.34,460.26a16.72,16.72,0,0,1-2.7-1.29.2.2,0,0,1-.11-.24.21.21,0,0,1,.18-.17c.49-.07,4.76-.65,5.62.33a.72.72,0,0,1,.14.69,1.28,1.28,0,0,1-.76.89A3.58,3.58,0,0,1,194.34,460.26Zm-1.9-1.35c1.87,1,3.37,1.43,4.09,1.17a.79.79,0,0,0,.5-.59.25.25,0,0,0-.05-.27C196.51,458.65,194.18,458.72,192.44,458.91Z" style="fill: rgb(64, 123, 255); transform-origin: 194.513px 459.454px;" id="eluh88pi1exi" class="animable"></path><path d="M191.45,459.18l-.11-.08a.26.26,0,0,1,0-.23c.05-.16,1.74-3.66,3.76-3l.18.05c.55.25.62.61.58.85-.2,1.07-3,2.26-4.29,2.38Zm3.49-2.86c-1.29-.45-2.51,1.51-3,2.35,1.35-.28,3.34-1.29,3.45-1.93,0,0,.06-.2-.32-.37Z" style="fill: rgb(64, 123, 255); transform-origin: 193.591px 457.484px;" id="elojxh1xqauss" class="animable"></path><path d="M180.11,460.58c-.12,1.7-.06,4.26,0,7,0,1.33.82,3.52,2,4,1.86.71,4.88.49,8.3-.06,4.47-.73,11.89-4.57,14.9-6.2a2.57,2.57,0,0,0,1.13-3.3c-.14-.29-.27-.52-.38-.71a.92.92,0,0,0-.84-.47c-4.09.12-4.68-.07-8.5-.07a6.41,6.41,0,0,1-5.45-2.68s-4.6,1.42-8.17.68S180.11,460.58,180.11,460.58Z" style="fill: rgb(38, 50, 56); transform-origin: 193.35px 465.059px;" id="el325zpm1uu74" class="animable"></path><path d="M145.78,209.37A92.14,92.14,0,0,0,134.61,215a32.67,32.67,0,0,0-9.25,7.5,3.75,3.75,0,0,0-1.06,2.63,4,4,0,0,0,.7,1.59,43.79,43.79,0,0,0,11.59,12.1,56.52,56.52,0,0,1,7-19.44c1.68-2.89,3.68-5.77,4-9.09Z" style="fill: rgb(64, 123, 255); transform-origin: 135.945px 224.095px;" id="elsdutrkijfcl" class="animable"></path><path d="M196.4,189.62a24.19,24.19,0,0,0,.62,6.51c-1.48.5-3.08-.8-3.08-.8Z" style="fill: rgb(160, 39, 36); transform-origin: 195.48px 192.932px;" id="el6sdq6x1xynq" class="animable"></path><path d="M195.26,195.34a2.35,2.35,0,0,1-.75-.11c-1.8-.53-2.69-2.87-2-5.23s2.72-3.84,4.51-3.31a3,3,0,0,1,2,2,5.21,5.21,0,0,1,0,3.2C198.44,193.9,196.86,195.34,195.26,195.34Zm1-8.26c-1.36,0-2.75,1.24-3.28,3.06-.62,2.09.12,4.16,1.65,4.61a2.1,2.1,0,0,0,.61.09c1.38,0,2.76-1.28,3.28-3.06a4.78,4.78,0,0,0,0-2.9,2.57,2.57,0,0,0-1.65-1.71A2.1,2.1,0,0,0,196.28,187.08Z" id="el692wwzrmxt4" class="animable" style="transform-origin: 195.774px 190.961px;"></path><path d="M171.3,188.29l3.32,6.79,4.54,9.27a8.32,8.32,0,0,0-2,2.33c-1.29,1.93-2.3,3.32,1.64,6.86a2.9,2.9,0,0,1,.94,3c-.42,1.31-1.9,2.41-6.48,1a21.75,21.75,0,0,1-10.93-8c-1.34-1.79-.81-2.86.85-4.31C168,201.25,170.14,194.12,171.3,188.29Z" style="fill: rgb(255, 139, 123); transform-origin: 170.708px 203.244px;" id="ele25nypxkd1g" class="animable"></path><path d="M193.53,198.77a13.33,13.33,0,0,1-10.12,6,12.41,12.41,0,0,1-4.12-.35,11.39,11.39,0,0,1-7.48-6.25c-2.86-6-.92-11.06,1.61-20a12.88,12.88,0,0,1,20.76-6.4C201.55,178.18,198.18,191.55,193.53,198.77Z" style="fill: rgb(255, 139, 123); transform-origin: 184.437px 186.758px;" id="elcrw31wdz5u" class="animable"></path><g id="el9eg50l77jo"><path d="M183.41,204.81a12.41,12.41,0,0,1-4.12-.35l-.13-.11,1.36-1.37S180.59,204.54,183.41,204.81Z" style="opacity: 0.2; transform-origin: 181.285px 203.916px;" class="animable"></path></g><path d="M179.43,167a3.43,3.43,0,0,0-3.56-2.14,6,6,0,0,1,2.36,3Z" style="fill: rgb(38, 50, 56); transform-origin: 177.65px 166.35px;" id="elmvo9c01y2wj" class="animable"></path><path d="M206.86,181.57c-2.34,2.46-8.38,1.42-8.38,1.42l-2.55-2.5c-.57-.5-1.75-1.05-2.58,1.84l-1.13,2.45s-2.94,4.82-7.33,7.14c-.62.33-2.35,1.53-2.35,1.53a9.92,9.92,0,0,1-10.14.39l-1.17-.46a3.32,3.32,0,0,1-2.1-2.89c-.28-4.94-.54-17.08,3.48-21,3.69-3.64,5.67-2.49,7-2.85a12.43,12.43,0,0,1,9.83-.9c9.88,3.4,9.51,9.24,11.5,8.95a5.53,5.53,0,0,0,3.15-1.67c-.17.29-2.3,3.7-1.29,3.81s3.71-2.25,3.48-1.57-3.14,3.68-1.38,4.42c1.59.67,4.21-1.7,4.21-1.7S209.21,179.1,206.86,181.57Z" style="fill: rgb(38, 50, 56); transform-origin: 189.05px 180.084px;" id="el5om3uh0wm38" class="animable"></path><g id="ellspbfqcehmf"><rect x="193.38" y="180.17" width="0.5" height="14.31" class="animable" style="transform-origin: 193.63px 187.325px; transform: rotate(-56.76deg);"></rect></g><path d="M182.94,186.46a8.45,8.45,0,0,0,1.55,5.84c1.59,2.16,4.35.7,5.13-1.81.7-2.26.21-5.84-2-7.08S183.22,183.89,182.94,186.46Z" style="fill: rgb(255, 139, 123); transform-origin: 186.404px 188.174px;" id="elqyd3m9ikpqe" class="animable"></path><path d="M145.78,209.37s-9.49,11.2-12.56,37.2S127.65,290,127.65,290l50,3.56s-1.9-16.71,0-29.54,14.66-43.38,11.84-48.3c-1.43-2.5-12.25-7.29-22.53-8C157,207,145.78,209.37,145.78,209.37Z" style="fill: rgb(38, 50, 56); transform-origin: 158.773px 250.572px;" id="elx1oyyyq5yi" class="animable"></path><path d="M177,214.76c-2.65,2.37-4.14,5.76-5.2,9.14a12,12,0,0,0-.74,4.34,13.68,13.68,0,0,0,1.93,5.37l4.68,8.89a47.74,47.74,0,0,0,16.74-3.67,2.78,2.78,0,0,0,1.66-1.28c.51-1.2-2.62-10.69-3-14.43C192.11,215.14,184,208.42,177,214.76Z" style="fill: rgb(64, 123, 255); transform-origin: 183.592px 227.373px;" id="elz851t9ytrg" class="animable"></path><path d="M157,207.83l4.14-3.22a5.11,5.11,0,0,1,3.43-1.07c2.88.15,8.61.15,13.47,2,4.41,1.71,3.47,5.45,3.47,5.45S173.07,207.57,157,207.83Z" style="fill: rgb(64, 123, 255); transform-origin: 169.297px 207.261px;" id="elx4m4oakto6" class="animable"></path><path d="M128.35,284.94c-2.77,3.07-2.77,12.54-2.77,12.54S151.35,300,162.86,300a101.51,101.51,0,0,0,13.25-.89l.76-5.58,1.63,5.18,2.29-.51-3.63-10.78Z" style="fill: rgb(64, 123, 255); transform-origin: 153.185px 292.47px;" id="el40stvbhtygr" class="animable"></path><path d="M141.07,440.48c.06,0-2.76,5-2.76,5l-16-6.32,1.35-4.87Z" style="fill: rgb(64, 123, 255); transform-origin: 131.69px 439.885px;" id="eln7d4jg77plr" class="animable"></path><path d="M197.64,441.23c.07,0-1,5.41-1,5.41H179.59l-.46-5Z" style="fill: rgb(64, 123, 255); transform-origin: 188.387px 443.935px;" id="ellmac9pi3xm" class="animable"></path></g></g><defs>     <filter id="active" height="200%">         <feMorphology in="SourceAlpha" result="DILATED" operator="dilate" radius="2"></feMorphology>                <feFlood flood-color="#32DFEC" flood-opacity="1" result="PINK"></feFlood>        <feComposite in="PINK" in2="DILATED" operator="in" result="OUTLINE"></feComposite>        <feMerge>            <feMergeNode in="OUTLINE"></feMergeNode>            <feMergeNode in="SourceGraphic"></feMergeNode>        </feMerge>    </filter>    <filter id="hover" height="200%">        <feMorphology in="SourceAlpha" result="DILATED" operator="dilate" radius="2"></feMorphology>                <feFlood flood-color="#ff0000" flood-opacity="0.5" result="PINK"></feFlood>        <feComposite in="PINK" in2="DILATED" operator="in" result="OUTLINE"></feComposite>        <feMerge>            <feMergeNode in="OUTLINE"></feMergeNode>            <feMergeNode in="SourceGraphic"></feMergeNode>        </feMerge>            <feColorMatrix type="matrix" values="0   0   0   0   0                0   1   0   0   0                0   0   0   0   0                0   0   0   1   0 "></feColorMatrix>    </filter></defs></svg>